<?xml version="1.0" encoding="UTF-8" standalone="no"?>
<svg
   xmlns:dc="http://purl.org/dc/elements/1.1/"
   xmlns:cc="http://creativecommons.org/ns#"
   xmlns:rdf="http://www.w3.org/1999/02/22-rdf-syntax-ns#"
   xmlns:svg="http://www.w3.org/2000/svg"
   xmlns="http://www.w3.org/2000/svg"
   xmlns:xlink="http://www.w3.org/1999/xlink"
   id="svg8"
   version="1.1"
   viewBox="0 0 48.68504 10.450571"
   height="39.498222"
   width="184.00645">
  <title
     id="title900">Movie Lib Logo</title>
  <defs
     id="defs2">
    <linearGradient
       id="linearGradient912">
      <stop
         id="stop908"
         offset="0"
         style="stop-color:#000000;stop-opacity:1;" />
      <stop
         id="stop910"
         offset="1"
         style="stop-color:#000000;stop-opacity:0;" />
    </linearGradient>
    <linearGradient
       id="linearGradient904">
      <stop
         id="stop900"
         offset="0"
         style="stop-color:#000000;stop-opacity:1;" />
      <stop
         id="stop902"
         offset="1"
         style="stop-color:#000000;stop-opacity:0;" />
    </linearGradient>
    <marker
       style="overflow:visible"
       id="Arrow1Lstart"
       refX="0"
       refY="0"
       orient="auto">
      <path
         transform="matrix(0.8,0,0,0.8,10,0)"
         style="fill-rule:evenodd;stroke:#000000;stroke-width:1.00000003pt"
         d="M 0,0 5,-5 -12.5,0 5,5 Z"
         id="path4569" />
    </marker>
    <linearGradient
       gradientUnits="userSpaceOnUse"
       y2="21.289145"
       x2="113.70703"
       y1="21.289145"
       x1="8.7356768"
       id="linearGradient906"
       xlink:href="#linearGradient904" />
    <linearGradient
       gradientUnits="userSpaceOnUse"
       y2="21.281006"
       x2="54.869141"
       y1="21.281006"
       x1="8.7356768"
       id="linearGradient914"
       xlink:href="#linearGradient912" />
  </defs>
  <metadata
     id="metadata5">
    <rdf:RDF>
      <cc:Work
         rdf:about="">
        <dc:format>image/svg+xml</dc:format>
        <dc:type
           rdf:resource="http://purl.org/dc/dcmitype/StillImage" />
        <dc:title>Movie Lib Logo</dc:title>
      </cc:Work>
    </rdf:RDF>
  </metadata>
  <g
     transform="translate(-2.2839689,-2.9481164)"
     id="layer1">
    <g
       id="g880">
      <g
         id="flowRoot843"
         style="font-style:normal;font-variant:normal;font-weight:bold;font-stretch:normal;font-size:33.33333206px;line-height:1.25;font-family:'Segoe UI';-inkscape-font-specification:'Segoe UI Bold';letter-spacing:0px;word-spacing:0px;fill:#ebebeb;fill-opacity:1;stroke:none;stroke-width:1;stroke-linecap:round;stroke-linejoin:round;stroke-miterlimit:4;stroke-dasharray:none;stroke-dashoffset:0;stroke-opacity:1"
         transform="matrix(0.3107118,0,0,0.38577102,-0.58566492,-0.60886975)"
         aria-label="MOVIE">
        <path
           id="path882"
           style="fill:#ebebeb;fill-opacity:1;stroke:none;stroke-opacity:1"
           d="M 35.830728,32.950928 H 30.638671 V 18.986084 q 0,-2.262369 0.195312,-4.996744 h -0.130208 q -0.406901,2.148437 -0.732422,3.092448 l -5.46875,15.86914 H 20.205729 L 14.639323,17.244548 Q 14.411458,16.609782 13.906901,13.98934 h -0.146485 q 0.211589,3.45052 0.211589,6.054687 V 32.950928 H 9.235677 V 9.6110847 h 7.698567 l 4.76888,13.8346353 q 0.569662,1.660156 0.830079,3.336588 h 0.09766 q 0.439453,-1.936849 0.927734,-3.369141 l 4.76888,-13.8020823 h 7.503255 z" />
        <path
           id="path884"
           style="fill:#ebebeb;fill-opacity:1;stroke:none;stroke-opacity:1"
           d="m 50.999999,33.357829 q -5.013021,0 -8.170573,-3.255209 -3.157552,-3.271484 -3.157552,-8.512369 0,-5.533854 3.20638,-8.951823 3.20638,-3.4179683 8.496094,-3.4179683 4.996744,0 8.072916,3.2714843 3.092448,3.271484 3.092448,8.626302 0,5.501302 -3.20638,8.870442 -3.190104,3.369141 -8.333333,3.369141 z m 0.227864,-19.61263 q -2.766927,0 -4.394531,2.083333 -1.627604,2.067058 -1.627604,5.485026 0,3.466797 1.627604,5.485026 1.627604,2.018229 4.264323,2.018229 2.718099,0 4.313151,-1.953125 1.595052,-1.969401 1.595052,-5.452474 0,-3.629557 -1.546224,-5.647786 -1.546224,-2.018229 -4.231771,-2.018229 z" />
        <path
           id="path886"
           style="fill:#ebebeb;fill-opacity:1;stroke:none;stroke-opacity:1"
           d="M 85.830727,9.6110847 77.790363,32.950928 H 71.833332 L 63.890624,9.6110847 h 5.664062 l 4.866536,16.2434893 q 0.390625,1.318359 0.472005,2.327473 h 0.09766 q 0.113932,-1.090494 0.504557,-2.392578 L 80.329425,9.6110847 Z" />
        <path
           id="path888"
           style="fill:#ebebeb;fill-opacity:1;stroke:none;stroke-opacity:1"
           d="M 93.919916,32.950928 H 88.662755 V 9.6110847 h 5.257161 z" />
        <path
           id="path890"
           style="fill:#ebebeb;fill-opacity:1;stroke:none;stroke-opacity:1"
           d="M 113.20703,32.950928 H 99.20963 V 9.6110847 h 13.46029 v 4.2805983 h -8.20313 v 5.192058 h 7.63346 v 4.264322 h -7.63346 v 5.338542 h 8.74024 z" />
      </g>
      <g
         id="flowRoot843-5"
         style="font-style:normal;font-variant:normal;font-weight:bold;font-stretch:normal;font-size:33.33333206px;line-height:1.25;font-family:'Segoe UI';-inkscape-font-specification:'Segoe UI Bold';letter-spacing:0px;word-spacing:0px;fill:#ff7a22;fill-opacity:1;stroke:none;stroke-width:1;stroke-linecap:round;stroke-linejoin:round;stroke-miterlimit:4;stroke-dasharray:none;stroke-dashoffset:0;stroke-opacity:1"
         transform="matrix(0.29641856,-0.05697388,0.06408141,0.33339699,32.741447,2.9391396)"
         aria-label="LIB">
        <path
           id="path893"
           style="fill:#ff7a22;fill-opacity:1;stroke:none;stroke-opacity:1"
           d="M 23.135416,32.950928 H 9.235677 V 9.6110847 h 5.257161 V 28.686605 h 8.642578 z" />
        <path
           id="path895"
           style="fill:#ff7a22;fill-opacity:1;stroke:none;stroke-opacity:1"
           d="M 31.550129,32.950928 H 26.292968 V 9.6110847 h 5.257161 z" />
        <path
           id="path897"
           style="fill:#ff7a22;fill-opacity:1;stroke:none;stroke-opacity:1"
           d="M 36.839843,32.950928 V 9.6110847 h 8.496093 q 3.90625,0 6.00586,1.4322913 2.099609,1.432292 2.099609,4.036458 0,1.888021 -1.285807,3.304037 -1.269532,1.416015 -3.255209,1.969401 v 0.0651 q 2.490235,0.309245 3.971354,1.839193 1.497396,1.529947 1.497396,3.727213 0,3.20638 -2.294922,5.094401 -2.294921,1.871745 -6.266275,1.871745 z m 5.257161,-19.466146 v 5.533854 h 2.311198 q 1.627604,0 2.555339,-0.78125 0.94401,-0.797526 0.94401,-2.180989 0,-2.571615 -3.841146,-2.571615 z m 0,9.440104 v 6.152344 h 2.848307 q 1.822917,0 2.848308,-0.846354 1.041666,-0.846355 1.041666,-2.311198 0,-1.39974 -1.02539,-2.197266 -1.009115,-0.797526 -2.832031,-0.797526 z" />
      </g>
    </g>
  </g>
</svg>
